<?xml version="1.0" standalone="no"?>
<!DOCTYPE svg PUBLIC "-//W3C//DTD SVG 20010904//EN"
 "http://www.w3.org/TR/2001/REC-SVG-20010904/DTD/svg10.dtd">
<svg version="1.0" xmlns="http://www.w3.org/2000/svg"
 width="1920.000000pt" height="1920.000000pt" viewBox="0 0 1920.000000 1920.000000"
 preserveAspectRatio="xMidYMid meet">

<g transform="translate(0.000000,1920.000000) scale(0.100000,-0.100000)"
fill="#000000" stroke="none">
<path d="M9640 14995 c-158 -45 -229 -112 -319 -300 -33 -70 -61 -132 -61
-137 0 -5 -22 -53 -49 -106 -26 -54 -52 -109 -56 -122 -4 -14 -24 -59 -44
-100 -21 -41 -48 -102 -61 -135 -13 -33 -29 -69 -36 -80 -7 -11 -65 -137 -129
-280 -65 -143 -123 -271 -131 -285 -7 -14 -27 -59 -44 -100 -17 -41 -38 -85
-45 -97 -8 -12 -29 -57 -46 -100 -17 -43 -39 -91 -49 -108 -9 -16 -30 -61 -45
-100 -15 -38 -35 -83 -45 -100 -10 -16 -30 -59 -45 -95 -15 -36 -44 -101 -65
-145 -21 -44 -84 -181 -140 -305 -56 -124 -105 -229 -109 -235 -4 -5 -20 -41
-35 -80 -15 -38 -38 -88 -50 -110 -13 -22 -36 -71 -51 -110 -15 -38 -35 -83
-45 -100 -10 -16 -35 -70 -54 -119 -20 -49 -40 -94 -45 -100 -5 -6 -26 -49
-46 -96 -20 -47 -42 -96 -49 -110 -8 -14 -46 -96 -85 -183 -40 -87 -76 -166
-81 -175 -5 -10 -28 -60 -51 -112 -23 -52 -48 -104 -56 -115 -7 -11 -13 -25
-13 -32 0 -7 -24 -64 -54 -126 -58 -122 -124 -263 -211 -457 -31 -69 -81 -175
-111 -237 -30 -62 -54 -117 -54 -123 0 -6 -6 -21 -14 -33 -8 -12 -37 -71 -64
-132 -27 -60 -66 -146 -87 -190 -20 -44 -66 -143 -102 -220 -36 -77 -87 -185
-114 -241 -27 -55 -49 -104 -49 -109 0 -5 -18 -45 -39 -89 -109 -227 -160
-336 -155 -336 2 0 -3 -14 -11 -30 -9 -17 -13 -35 -10 -41 4 -5 1 -8 -6 -7 -7
2 -34 -45 -64 -112 -28 -63 -64 -141 -79 -173 -15 -32 -29 -63 -30 -70 -1 -7
-11 -28 -21 -47 -26 -48 -95 -190 -94 -193 1 -1 -27 -60 -60 -132 -117 -245
-136 -288 -133 -297 1 -4 -3 -8 -9 -8 -6 0 -8 -7 -5 -16 3 -8 2 -12 -4 -9 -10
6 -14 -15 -11 -44 2 -7 -2 -10 -7 -7 -5 3 -20 -21 -33 -54 -13 -33 -27 -60
-32 -60 -4 0 -5 -4 -2 -10 3 -5 0 -10 -7 -10 -9 0 -9 -3 2 -10 13 -8 12 -10
-3 -10 -10 0 -15 -5 -12 -10 4 -7 14 -6 28 1 21 10 21 9 3 -5 -10 -9 -22 -13
-26 -11 -3 2 -16 -16 -28 -41 -25 -51 -27 -58 -10 -48 7 4 8 3 4 -5 -4 -6 -11
-9 -16 -6 -4 3 -10 -1 -13 -9 -6 -14 18 -30 32 -21 4 2 8 -2 8 -9 0 -7 -6 -13
-14 -13 -7 0 -13 4 -13 9 0 4 -7 8 -15 8 -18 0 -39 -46 -29 -62 4 -6 2 -8 -3
-5 -6 4 -15 -6 -21 -22 -8 -22 -7 -33 4 -45 8 -9 9 -11 2 -6 -16 13 -31 13
-23 0 3 -6 2 -10 -3 -10 -11 0 -46 -80 -43 -99 1 -7 -2 -10 -7 -7 -5 3 -15 -9
-22 -27 -6 -17 -33 -75 -60 -129 -27 -53 -46 -99 -42 -103 4 -4 7 -12 7 -18 0
-7 9 -13 20 -15 12 -2 16 0 9 5 -6 4 -10 20 -10 35 0 38 13 21 19 -24 l5 -37
-35 14 c-32 13 -34 13 -23 0 11 -13 10 -14 -5 -9 -13 5 -16 4 -11 -4 4 -7 2
-12 -4 -12 -6 0 -9 -4 -6 -9 4 -5 0 -12 -6 -14 -10 -4 -10 -6 0 -6 6 -1 12 -6
12 -12 0 -5 -5 -7 -11 -4 -6 4 -17 -1 -24 -11 -22 -29 -18 -39 7 -18 12 10 18
14 15 7 -4 -6 -3 -14 3 -18 5 -3 10 -11 10 -18 0 -6 -6 -3 -13 7 -12 16 -14
15 -36 -5 -15 -14 -21 -29 -18 -44 3 -18 0 -22 -11 -17 -11 4 -14 1 -9 -12 4
-10 3 -15 -3 -11 -6 3 -10 1 -10 -4 0 -6 4 -11 8 -11 5 0 9 -7 9 -15 0 -10 -4
-12 -12 -5 -8 7 -12 5 -13 -5 -1 -8 -3 -21 -4 -29 -1 -8 -7 -12 -15 -9 -7 3
-13 0 -13 -6 0 -6 11 -10 25 -9 20 2 24 6 19 21 -4 14 -2 18 7 14 8 -2 12 -11
10 -18 -2 -8 -4 -25 -4 -39 0 -22 -5 -26 -29 -28 -26 -2 -30 0 -25 18 7 26 -5
26 -21 -1 -8 -12 -9 -18 -3 -14 18 10 13 -3 -9 -25 -20 -20 -28 -56 -10 -45 6
4 8 10 6 14 -3 4 0 13 5 21 7 11 8 8 5 -10 -2 -14 -7 -33 -11 -42 -5 -12 -3
-18 6 -18 7 0 10 2 8 5 -8 7 1591 1600 1602 1597 6 -1 8 2 4 8 -3 5 -16 10
-28 10 -21 0 -21 1 5 25 18 16 25 31 21 45 -6 22 20 29 33 8 5 -8 2 -9 -11 -4
-15 6 -16 4 -5 -10 12 -13 11 -17 -1 -26 -11 -8 -10 -9 4 -4 10 3 24 6 30 6 9
0 9 2 0 8 -8 5 -9 13 -3 22 9 13 10 13 10 0 0 -10 5 -7 16 8 8 12 12 27 9 32
-3 6 -1 10 5 10 6 0 9 4 6 9 -3 5 1 12 10 15 8 3 12 10 9 16 -3 5 -2 10 3 10
5 0 9 7 9 15 0 16 -22 15 -22 -1 -1 -16 -26 -56 -32 -50 -3 3 -3 11 -1 18 3 7
5 16 4 20 0 3 13 19 29 34 17 15 29 31 28 36 -2 4 6 12 17 18 11 6 18 15 15
21 -4 5 -1 9 5 9 7 0 9 7 6 16 -3 8 -2 13 2 10 9 -5 42 56 42 77 0 7 6 19 13
25 19 20 15 36 -13 49 l-25 12 26 -5 c15 -3 30 0 37 9 25 30 81 151 74 161
-10 17 -11 37 -1 30 5 -3 6 -11 3 -17 -5 -8 -4 -9 3 -2 6 6 20 30 33 55 12 25
29 57 36 72 8 14 14 33 14 42 0 9 6 16 13 16 8 0 7 4 -3 10 -13 8 -12 10 3 10
15 0 16 4 7 20 -8 16 -8 18 4 14 9 -3 19 4 27 18 7 13 12 24 11 25 -1 2 14 37
33 79 19 42 32 81 28 87 -3 5 -1 7 4 4 6 -4 16 7 22 25 14 39 14 41 -1 32 -7
-5 -8 -3 -4 5 5 7 11 10 14 6 3 -3 30 43 59 102 51 105 66 152 41 137 -7 -4
-8 -3 -4 5 4 6 11 9 16 6 5 -3 25 26 45 65 19 38 32 70 28 70 -5 0 -2 4 5 9 7
4 14 15 15 23 2 8 22 53 45 101 23 49 40 93 36 99 -5 7 -2 8 6 3 10 -6 12 -4
7 9 -4 10 -3 15 3 11 6 -3 10 0 10 8 0 7 11 36 25 63 14 27 60 123 101 214 42
91 80 169 85 175 5 5 9 15 9 22 0 8 27 68 59 133 33 66 58 120 56 120 -2 0 23
57 56 128 129 269 151 317 149 322 -1 3 26 60 59 127 34 68 61 127 61 131 0 4
20 48 44 98 41 84 64 133 172 378 25 55 48 104 53 110 5 6 26 52 46 101 20 50
42 100 50 112 8 12 31 61 51 110 20 48 40 93 44 98 4 6 38 78 75 160 37 83 75
166 85 185 11 19 31 64 45 100 15 36 33 74 40 86 7 11 29 60 49 108 20 48 43
97 50 109 8 12 26 51 41 87 14 36 44 102 66 147 22 45 46 101 54 124 9 23 19
47 24 53 8 10 46 93 201 436 26 58 61 134 78 170 l31 65 7 738 6 737 -29 -1
c-15 0 -48 -7 -73 -14z m-2245 -6495 c4 -6 -1 -7 -11 -3 -13 5 -15 3 -9 -7 5
-9 4 -11 -4 -6 -6 4 -9 12 -6 17 8 12 22 12 30 -1z m-145 -294 c0 -3 -4 -8
-10 -11 -5 -3 -10 -1 -10 4 0 6 5 11 10 11 6 0 10 -2 10 -4z m-93 -190 c-3 -7
-1 -18 4 -23 6 -6 1 -14 -14 -20 -19 -9 -24 -8 -24 3 0 9 6 13 16 9 12 -5 13
-3 4 6 -13 13 -7 39 9 39 6 0 8 -6 5 -14z m20 -8 c-3 -8 -6 -5 -6 6 -1 11 2
17 5 13 3 -3 4 -12 1 -19z m-70 -143 c-9 -8 -17 -20 -20 -27 -2 -7 -8 -10 -12
-6 -9 8 22 48 37 48 5 0 3 -7 -5 -15z m-55 -27 c-8 -8 -9 -4 -5 13 4 13 8 18
11 10 2 -7 -1 -18 -6 -23z m24 -43 c-6 -14 -13 -19 -15 -14 -2 8 -6 7 -11 -1
-5 -8 -7 -3 -7 13 1 14 5 23 10 20 4 -2 7 0 7 6 0 6 6 8 14 5 11 -4 11 -10 2
-29z m-46 -54 c0 -5 -7 -11 -15 -15 -15 -5 -20 5 -8 17 9 10 23 9 23 -2z m-50
-71 c0 -5 -5 -10 -11 -10 -5 0 -7 5 -4 10 3 6 8 10 11 10 2 0 4 -4 4 -10z
m-180 -295 c0 -9 -9 -15 -21 -15 -18 0 -19 2 -9 15 7 8 16 15 21 15 5 0 9 -7
9 -15z m-80 -80 c0 -9 -9 -15 -21 -15 -18 0 -19 2 -9 15 7 8 16 15 21 15 5 0
9 -7 9 -15z m-80 -80 c0 -9 -9 -15 -21 -15 -18 0 -19 2 -9 15 7 8 16 15 21 15
5 0 9 -7 9 -15z m-80 -80 c0 -9 -9 -15 -21 -15 -18 0 -19 2 -9 15 7 8 16 15
21 15 5 0 9 -7 9 -15z m-80 -80 c0 -9 -9 -15 -21 -15 -18 0 -19 2 -9 15 7 8
16 15 21 15 5 0 9 -7 9 -15z m-80 -80 c0 -9 -9 -15 -21 -15 -18 0 -19 2 -9 15
7 8 16 15 21 15 5 0 9 -7 9 -15z m-80 -80 c0 -9 -9 -15 -21 -15 -18 0 -19 2
-9 15 7 8 16 15 21 15 5 0 9 -7 9 -15z m-80 -80 c0 -9 -9 -15 -21 -15 -18 0
-19 2 -9 15 7 8 16 15 21 15 5 0 9 -7 9 -15z m-80 -80 c0 -9 -9 -15 -21 -15
-18 0 -19 2 -9 15 7 8 16 15 21 15 5 0 9 -7 9 -15z m-493 -78 c0 -8 -6 -14
-14 -14 -9 0 -10 4 -2 14 6 7 12 13 14 13 1 0 2 -6 2 -13z m413 -2 c0 -9 -9
-15 -21 -15 -18 0 -19 2 -9 15 7 8 16 15 21 15 5 0 9 -7 9 -15z m-80 -80 c0
-9 -9 -15 -21 -15 -18 0 -19 2 -9 15 7 8 16 15 21 15 5 0 9 -7 9 -15z m-418
-74 c-11 -7 -11 -9 1 -14 11 -4 13 -13 9 -29 l-6 -23 -6 25 c-4 14 -13 24 -20
22 -11 -3 -11 0 0 12 7 9 18 16 24 16 7 0 6 -4 -2 -9z m338 -6 c0 -9 -9 -15
-21 -15 -18 0 -19 2 -9 15 7 8 16 15 21 15 5 0 9 -7 9 -15z m-340 -90 c0 -5
-5 -3 -10 5 -5 8 -10 20 -10 25 0 6 5 3 10 -5 5 -8 10 -19 10 -25z m260 10 c0
-9 -9 -15 -21 -15 -18 0 -19 2 -9 15 7 8 16 15 21 15 5 0 9 -7 9 -15z m-317
-20 c-3 -9 -8 -14 -10 -11 -3 3 -2 9 2 15 9 16 15 13 8 -4z m237 -60 c0 -9 -9
-15 -21 -15 -18 0 -19 2 -9 15 7 8 16 15 21 15 5 0 9 -7 9 -15z m-80 -80 c0
-9 -9 -15 -21 -15 -18 0 -19 2 -9 15 7 8 16 15 21 15 5 0 9 -7 9 -15z m-80
-80 c0 -9 -9 -15 -21 -15 -18 0 -19 2 -9 15 7 8 16 15 21 15 5 0 9 -7 9 -15z
m-200 -77 c0 -9 4 -8 10 2 6 9 10 10 10 3 0 -19 -17 -24 -30 -8 -9 10 -9 15
-1 15 6 0 11 -6 11 -12z m120 -3 c0 -9 -9 -15 -21 -15 -18 0 -19 2 -9 15 7 8
16 15 21 15 5 0 9 -7 9 -15z m-80 -80 c0 -9 -9 -15 -21 -15 -18 0 -19 2 -9 15
7 8 16 15 21 15 5 0 9 -7 9 -15z"/>
<path d="M9555 10680 c-16 -4 -69 -13 -117 -20 -49 -7 -88 -17 -88 -22 0 -5
-5 -6 -10 -3 -11 7 -110 -25 -110 -35 0 -3 -10 -6 -21 -7 -51 -4 -301 -140
-388 -212 -93 -76 -251 -241 -303 -317 -126 -180 -250 -492 -252 -631 -1 -28
-5 -49 -10 -46 -5 3 -7 -8 -4 -26 3 -18 1 -34 -4 -37 -4 -3 -8 -54 -8 -115 0
-97 2 -109 18 -110 14 0 14 -2 -3 -9 -19 -8 -19 -9 3 -9 13 -1 22 5 22 13 0 8
5 18 12 22 7 5 8 3 4 -5 -5 -7 0 -18 10 -27 16 -11 16 -13 2 -8 -22 8 -58 -30
-58 -61 0 -28 14 -32 36 -11 15 16 19 30 6 22 -5 -3 -9 1 -9 9 0 8 5 11 10 8
6 -4 8 1 4 11 -4 11 -3 15 4 11 6 -4 8 -13 5 -21 -3 -7 0 -16 6 -20 7 -4 6 -9
-2 -14 -10 -6 -9 -13 2 -29 19 -27 12 -72 -10 -64 -12 5 -11 1 4 -14 19 -20
20 -19 697 656 555 554 677 671 677 650 0 -14 -5 -30 -12 -37 -9 -9 -9 -12 -1
-12 7 0 14 -21 16 -47 2 -27 5 26 6 117 2 91 6 156 8 145 3 -11 10 -25 15 -32
5 -7 7 -16 4 -21 -3 -5 -1 -22 4 -38 5 -19 9 48 9 189 l1 217 -72 -1 c-40 0
-86 -4 -103 -9z m165 -4 c0 -3 -4 -8 -10 -11 -5 -3 -10 -1 -10 4 0 6 5 11 10
11 6 0 10 -2 10 -4z m-970 -380 c0 -2 -8 -10 -17 -17 -16 -13 -17 -12 -4 4 13
16 21 21 21 13z m930 -41 c0 -9 -9 -15 -21 -15 -18 0 -19 2 -9 15 7 8 16 15
21 15 5 0 9 -7 9 -15z m-80 -80 c0 -9 -9 -15 -21 -15 -18 0 -19 2 -9 15 7 8
16 15 21 15 5 0 9 -7 9 -15z m-80 -80 c0 -9 -9 -15 -21 -15 -18 0 -19 2 -9 15
7 8 16 15 21 15 5 0 9 -7 9 -15z m-80 -80 c0 -9 -9 -15 -21 -15 -18 0 -19 2
-9 15 7 8 16 15 21 15 5 0 9 -7 9 -15z m-80 -80 c0 -9 -9 -15 -21 -15 -18 0
-19 2 -9 15 7 8 16 15 21 15 5 0 9 -7 9 -15z m-80 -80 c0 -9 -9 -15 -21 -15
-18 0 -19 2 -9 15 7 8 16 15 21 15 5 0 9 -7 9 -15z m-80 -80 c0 -9 -9 -15 -21
-15 -18 0 -19 2 -9 15 7 8 16 15 21 15 5 0 9 -7 9 -15z m-80 -80 c0 -9 -9 -15
-21 -15 -18 0 -19 2 -9 15 7 8 16 15 21 15 5 0 9 -7 9 -15z m-80 -80 c0 -9 -9
-15 -21 -15 -18 0 -19 2 -9 15 7 8 16 15 21 15 5 0 9 -7 9 -15z m-80 -80 c0
-9 -9 -15 -21 -15 -18 0 -19 2 -9 15 7 8 16 15 21 15 5 0 9 -7 9 -15z m-80
-80 c0 -9 -9 -15 -21 -15 -18 0 -19 2 -9 15 7 8 16 15 21 15 5 0 9 -7 9 -15z
m-80 -80 c0 -9 -9 -15 -21 -15 -18 0 -19 2 -9 15 7 8 16 15 21 15 5 0 9 -7 9
-15z m-530 -65 c0 -5 -5 -10 -11 -10 -5 0 -7 5 -4 10 3 6 8 10 11 10 2 0 4 -4
4 -10z m450 -15 c0 -9 -9 -15 -21 -15 -18 0 -19 2 -9 15 7 8 16 15 21 15 5 0
9 -7 9 -15z m-80 -80 c0 -9 -9 -15 -21 -15 -18 0 -19 2 -9 15 7 8 16 15 21 15
5 0 9 -7 9 -15z m-80 -80 c0 -9 -9 -15 -21 -15 -18 0 -19 2 -9 15 7 8 16 15
21 15 5 0 9 -7 9 -15z m-80 -80 c0 -9 -9 -15 -21 -15 -18 0 -19 2 -9 15 7 8
16 15 21 15 5 0 9 -7 9 -15z m-80 -80 c0 -9 -9 -15 -21 -15 -18 0 -19 2 -9 15
7 8 16 15 21 15 5 0 9 -7 9 -15z"/>
<path d="M9723 10160 c0 -47 2 -66 4 -42 2 23 2 61 0 85 -2 23 -4 4 -4 -43z"/>
<path d="M9585 10090 c-3 -5 -1 -10 4 -10 6 0 11 5 11 10 0 6 -2 10 -4 10 -3
0 -8 -4 -11 -10z"/>
<path d="M9505 10010 c-3 -5 -1 -10 4 -10 6 0 11 5 11 10 0 6 -2 10 -4 10 -3
0 -8 -4 -11 -10z"/>
<path d="M9425 9930 c-3 -5 -1 -10 4 -10 6 0 11 5 11 10 0 6 -2 10 -4 10 -3 0
-8 -4 -11 -10z"/>
<path d="M9690 9890 c8 -5 20 -10 25 -10 6 0 3 5 -5 10 -8 5 -19 10 -25 10 -5
0 -3 -5 5 -10z"/>
<path d="M9686 9862 c-2 -4 4 -8 14 -8 10 0 16 4 14 8 -3 4 -9 8 -14 8 -5 0
-11 -4 -14 -8z"/>
<path d="M9345 9850 c-3 -5 -1 -10 4 -10 6 0 11 5 11 10 0 6 -2 10 -4 10 -3 0
-8 -4 -11 -10z"/>
<path d="M9462 9818 c9 -21 -2 -31 -18 -17 -7 6 -19 9 -26 6 -8 -3 -5 -6 6 -6
19 -1 19 -2 1 -21 -17 -18 -17 -20 -2 -14 9 3 17 10 17 16 0 5 3 7 8 4 4 -2
14 1 23 8 15 10 15 13 1 26 -14 13 -15 12 -10 -2z"/>
<path d="M9265 9770 c-3 -5 -1 -10 4 -10 6 0 11 5 11 10 0 6 -2 10 -4 10 -3 0
-8 -4 -11 -10z"/>
<path d="M9313 9747 c-3 -7 -3 -9 2 -5 4 4 14 0 22 -10 12 -16 13 -16 6 2 -5
15 -3 17 8 11 8 -5 11 -4 6 0 -12 14 -36 14 -44 2z"/>
<path d="M9296 9721 c-3 -5 1 -14 8 -20 10 -9 16 -9 21 -1 4 6 1 9 -7 8 -7 -2
-12 3 -10 10 2 14 -4 16 -12 3z"/>
<path d="M9186 9691 c-3 -5 1 -11 9 -14 9 -4 12 -1 8 9 -6 16 -10 17 -17 5z"/>
<path d="M9248 9656 c-16 -8 -30 -10 -35 -5 -6 6 -10 4 -10 -5 0 -7 5 -13 11
-11 21 4 66 25 66 30 0 7 -2 7 -32 -9z"/>
<path d="M9105 9610 c-3 -5 -1 -10 4 -10 6 0 11 5 11 10 0 6 -2 10 -4 10 -3 0
-8 -4 -11 -10z"/>
<path d="M9190 9580 c-9 -6 -10 -10 -3 -10 6 0 15 5 18 10 8 12 4 12 -15 0z"/>
<path d="M9025 9530 c-3 -5 -1 -10 4 -10 6 0 11 5 11 10 0 6 -2 10 -4 10 -3 0
-8 -4 -11 -10z"/>
<path d="M9149 9518 c-5 -18 -6 -38 -1 -34 7 8 12 36 6 36 -2 0 -4 -1 -5 -2z"/>
<path d="M9123 9465 c0 -8 4 -12 9 -9 5 3 6 10 3 15 -9 13 -12 11 -12 -6z"/>
<path d="M8945 9450 c-3 -5 -1 -10 4 -10 6 0 11 5 11 10 0 6 -2 10 -4 10 -3 0
-8 -4 -11 -10z"/>
<path d="M9066 9413 c-6 -14 -5 -15 5 -6 7 7 10 15 7 18 -3 3 -9 -2 -12 -12z"/>
<path d="M9101 9376 c-9 -11 -9 -16 1 -22 7 -4 10 -4 6 1 -4 4 -3 14 3 22 6 7
9 13 6 13 -2 0 -10 -6 -16 -14z"/>
<path d="M8865 9370 c-3 -5 -1 -10 4 -10 6 0 11 5 11 10 0 6 -2 10 -4 10 -3 0
-8 -4 -11 -10z"/>
<path d="M9047 9306 c-4 -10 -1 -13 8 -9 8 3 12 9 9 14 -7 12 -11 11 -17 -5z"/>
<path d="M8785 9290 c-3 -5 -1 -10 4 -10 6 0 11 5 11 10 0 6 -2 10 -4 10 -3 0
-8 -4 -11 -10z"/>
<path d="M8705 9210 c-3 -5 -1 -10 4 -10 6 0 11 5 11 10 0 6 -2 10 -4 10 -3 0
-8 -4 -11 -10z"/>
<path d="M9054 9206 c1 -8 5 -18 8 -22 4 -3 5 1 4 10 -1 8 -5 18 -8 22 -4 3
-5 -1 -4 -10z"/>
<path d="M8625 9130 c-3 -5 -1 -10 4 -10 6 0 11 5 11 10 0 6 -2 10 -4 10 -3 0
-8 -4 -11 -10z"/>
<path d="M8545 9050 c-3 -5 -1 -10 4 -10 6 0 11 5 11 10 0 6 -2 10 -4 10 -3 0
-8 -4 -11 -10z"/>
<path d="M8278 8982 c-19 -4 -24 -27 -8 -37 5 -3 7 -12 4 -20 -3 -7 -1 -22 5
-32 9 -15 10 -13 5 10 -5 20 -2 27 9 27 8 0 17 6 20 13 7 19 -15 43 -35 39z
m27 -21 c7 -12 -12 -24 -25 -16 -11 7 -4 25 10 25 5 0 11 -4 15 -9z"/>
<path d="M8465 8970 c-3 -5 -1 -10 4 -10 6 0 11 5 11 10 0 6 -2 10 -4 10 -3 0
-8 -4 -11 -10z"/>
<path d="M8385 8890 c-3 -5 -1 -10 4 -10 6 0 11 5 11 10 0 6 -2 10 -4 10 -3 0
-8 -4 -11 -10z"/>
<path d="M8293 8876 c-9 -11 -9 -15 0 -19 7 -3 14 3 14 14 2 22 2 22 -14 5z"/>
<path d="M8290 8829 c0 -5 5 -7 12 -3 8 5 9 1 4 -12 -5 -14 -4 -16 5 -7 6 6 8
16 5 22 -9 14 -26 14 -26 0z"/>
<path d="M8336 8698 c3 -5 10 -6 15 -3 13 9 11 12 -6 12 -8 0 -12 -4 -9 -9z"/>
<path d="M8370 8661 c0 -6 4 -13 10 -16 6 -3 7 1 4 9 -7 18 -14 21 -14 7z"/>
<path d="M8366 8605 c4 -8 10 -15 15 -15 4 0 6 7 3 15 -4 8 -10 15 -15 15 -4
0 -6 -7 -3 -15z"/>
<path d="M8396 8538 c3 -5 10 -6 15 -3 13 9 11 12 -6 12 -8 0 -12 -4 -9 -9z"/>
<path d="M6899 7413 c-13 -16 -12 -17 4 -4 9 7 17 15 17 17 0 8 -8 3 -21 -13z"/>
<path d="M6864 7368 c-11 -12 -13 -18 -6 -14 15 9 16 -6 0 -22 -6 -6 -9 -14
-6 -17 3 -3 15 10 26 29 24 40 14 56 -14 24z"/>
<path d="M6817 7313 c-4 -3 -7 -13 -7 -22 1 -13 3 -13 11 2 11 19 8 33 -4 20z"/>
<path d="M6785 7290 c-3 -5 -1 -10 4 -10 6 0 11 5 11 10 0 6 -2 10 -4 10 -3 0
-8 -4 -11 -10z"/>
<path d="M6706 7211 c-3 -5 1 -11 9 -14 9 -4 12 -1 8 9 -6 16 -10 17 -17 5z"/>
<path d="M6740 7188 c0 -4 4 -8 9 -8 6 0 12 4 15 8 3 5 -1 9 -9 9 -8 0 -15 -4
-15 -9z"/>
<path d="M6779 7183 c-13 -16 -12 -17 4 -4 9 7 17 15 17 17 0 8 -8 3 -21 -13z"/>
<path d="M6737 7140 c15 -16 43 -22 43 -9 0 5 -4 9 -9 9 -5 0 -18 3 -28 6 -15
6 -16 4 -6 -6z"/>
<path d="M6625 7130 c-3 -5 -1 -10 4 -10 6 0 11 5 11 10 0 6 -2 10 -4 10 -3 0
-8 -4 -11 -10z"/>
<path d="M6729 7116 c9 -11 9 -15 -1 -19 -7 -3 -3 -5 9 -3 12 1 26 6 30 11 5
4 3 5 -3 2 -7 -4 -14 0 -18 8 -3 8 -11 15 -17 15 -9 0 -9 -3 0 -14z"/>
<path d="M6725 7070 c-3 -6 1 -7 9 -4 18 7 21 14 7 14 -6 0 -13 -4 -16 -10z"/>
<path d="M6545 7050 c-3 -5 -1 -10 4 -10 6 0 11 5 11 10 0 6 -2 10 -4 10 -3 0
-8 -4 -11 -10z"/>
<path d="M6465 6970 c-3 -5 -1 -10 4 -10 6 0 11 5 11 10 0 6 -2 10 -4 10 -3 0
-8 -4 -11 -10z"/>
<path d="M6385 6890 c-3 -5 -1 -10 4 -10 6 0 11 5 11 10 0 6 -2 10 -4 10 -3 0
-8 -4 -11 -10z"/>
<path d="M6305 6810 c-3 -5 -1 -10 4 -10 6 0 11 5 11 10 0 6 -2 10 -4 10 -3 0
-8 -4 -11 -10z"/>
<path d="M6563 6765 c0 -8 4 -12 9 -9 5 3 6 10 3 15 -9 13 -12 11 -12 -6z"/>
<path d="M6576 6735 c-9 -26 -7 -32 5 -12 6 10 9 21 6 23 -2 3 -7 -2 -11 -11z"/>
<path d="M6225 6730 c-3 -5 -1 -10 4 -10 6 0 11 5 11 10 0 6 -2 10 -4 10 -3 0
-8 -4 -11 -10z"/>
<path d="M6556 6688 c3 -5 10 -6 15 -3 13 9 11 12 -6 12 -8 0 -12 -4 -9 -9z"/>
<path d="M6504 6659 c-3 -6 -2 -15 3 -20 5 -5 9 -1 10 11 2 22 -2 25 -13 9z"/>
<path d="M6543 6658 c-11 -19 -13 -39 -1 -32 5 3 7 9 4 12 -3 3 -1 11 5 19 6
7 9 13 6 13 -3 0 -9 -6 -14 -12z"/>
<path d="M6145 6650 c-3 -5 -1 -10 4 -10 6 0 11 5 11 10 0 6 -2 10 -4 10 -3 0
-8 -4 -11 -10z"/>
<path d="M6065 6570 c-3 -5 -1 -10 4 -10 6 0 11 5 11 10 0 6 -2 10 -4 10 -3 0
-8 -4 -11 -10z"/>
<path d="M5985 6490 c-3 -5 -1 -10 4 -10 6 0 11 5 11 10 0 6 -2 10 -4 10 -3 0
-8 -4 -11 -10z"/>
<path d="M5905 6410 c-3 -5 -1 -10 4 -10 6 0 11 5 11 10 0 6 -2 10 -4 10 -3 0
-8 -4 -11 -10z"/>
<path d="M5825 6330 c-3 -5 -1 -10 4 -10 6 0 11 5 11 10 0 6 -2 10 -4 10 -3 0
-8 -4 -11 -10z"/>
<path d="M5745 6250 c-3 -5 -1 -10 4 -10 6 0 11 5 11 10 0 6 -2 10 -4 10 -3 0
-8 -4 -11 -10z"/>
<path d="M5665 6170 c-3 -5 -1 -10 4 -10 6 0 11 5 11 10 0 6 -2 10 -4 10 -3 0
-8 -4 -11 -10z"/>
<path d="M5585 6090 c-3 -5 -1 -10 4 -10 6 0 11 5 11 10 0 6 -2 10 -4 10 -3 0
-8 -4 -11 -10z"/>
<path d="M5505 6010 c-3 -5 -1 -10 4 -10 6 0 11 5 11 10 0 6 -2 10 -4 10 -3 0
-8 -4 -11 -10z"/>
<path d="M5324 5951 c4 -5 0 -12 -6 -14 -8 -3 -6 -6 5 -6 9 -1 17 6 17 14 0 8
-5 15 -11 15 -5 0 -8 -4 -5 -9z"/>
<path d="M5425 5930 c-3 -5 -1 -10 4 -10 6 0 11 5 11 10 0 6 -2 10 -4 10 -3 0
-8 -4 -11 -10z"/>
<path d="M5345 5850 c-3 -5 -1 -10 4 -10 6 0 11 5 11 10 0 6 -2 10 -4 10 -3 0
-8 -4 -11 -10z"/>
<path d="M5239 5835 c-1 -5 -1 -14 0 -19 3 -16 -11 -46 -19 -41 -4 3 -14 -3
-21 -13 -12 -15 -12 -16 2 -5 9 7 18 11 20 8 3 -2 18 7 34 20 19 16 23 23 11
18 -11 -4 -17 -2 -13 3 3 6 2 16 -4 24 -5 8 -9 11 -10 5z"/>
<path d="M5176 5708 c3 -4 1 -8 -4 -8 -6 0 -13 -8 -16 -17 -5 -13 0 -11 18 6
30 29 30 28 11 28 -8 0 -12 -4 -9 -9z"/>
<path d="M5176 5639 c2 -4 -2 -10 -8 -12 -10 -4 -10 -6 0 -6 7 -1 10 -5 7 -11
-3 -6 1 -7 10 -3 13 5 14 7 3 14 -10 7 -10 9 0 9 6 0 12 4 12 8 0 5 -7 9 -15
9 -8 0 -12 -4 -9 -8z"/>
<path d="M5137 5609 c7 -7 15 -10 18 -7 3 3 -2 9 -12 12 -14 6 -15 5 -6 -5z"/>
<path d="M5090 5516 c7 -7 13 -7 20 0 6 6 3 10 -10 10 -13 0 -16 -4 -10 -10z"/>
<path d="M5068 5483 c7 -3 16 -2 19 1 4 3 -2 6 -13 5 -11 0 -14 -3 -6 -6z"/>
<path d="M5086 5448 c3 -5 10 -6 15 -3 13 9 11 12 -6 12 -8 0 -12 -4 -9 -9z"/>
<path d="M5010 5346 c0 -2 7 -7 16 -10 8 -3 12 -2 9 4 -6 10 -25 14 -25 6z"/>
<path d="M4916 5182 c-3 -5 1 -9 9 -9 8 0 12 4 9 9 -3 4 -7 8 -9 8 -2 0 -6 -4
-9 -8z"/>
<path d="M4836 5012 c-3 -5 1 -9 9 -9 8 0 12 4 9 9 -3 4 -7 8 -9 8 -2 0 -6 -4
-9 -8z"/>
<path d="M4865 4989 c-4 -6 -5 -12 -2 -15 2 -3 7 2 10 11 7 17 1 20 -8 4z"/>
</g>
</svg>
