<?xml version="1.0" standalone="no"?>
<!DOCTYPE svg PUBLIC "-//W3C//DTD SVG 20010904//EN"
 "http://www.w3.org/TR/2001/REC-SVG-20010904/DTD/svg10.dtd">
<svg version="1.0" xmlns="http://www.w3.org/2000/svg"
 width="512.000000pt" height="512.000000pt" viewBox="0 0 512.000000 512.000000"
 preserveAspectRatio="xMidYMid meet">

<g transform="translate(0.000000,512.000000) scale(0.100000,-0.100000)"
fill="#000000" stroke="none">
<path d="M2475 4671 c-22 -10 -53 -31 -69 -47 -39 -40 -1751 -3464 -1761
-3522 -9 -57 8 -120 47 -166 43 -52 95 -76 165 -76 75 0 38 -22 888 541 374
247 698 460 720 472 51 27 136 28 185 3 19 -11 371 -241 781 -512 454 -299
762 -497 787 -503 94 -26 192 22 237 113 52 106 113 -30 -843 1882 -524 1047
-874 1737 -894 1760 -62 70 -161 93 -243 55z"/>
</g>
</svg>
